#!OML:ASF Y:\EmotionMaleHayes\Project 1\Capture day 1\Session 1\Male1.ASF
:FULLY-SPECIFIED
:DEGREES
1023
root 18.7014 17.3761 -1.31365 715.553 76.4897 717.988
lowerback 0.973588 2.12415 -2.40172
upperback 2.74364 2.86785 0.202994
thorax 2.14266 1.39294 1.57532
lowerneck -31.8712 3.61729 3.8636
upperneck 21.4637 3.40155 -0.60151
head 12.3996 1.75275 -0.19693
rclavicle -3.76448e-015 -3.18055e-015
rhumerus 50.9494 15.8945 -34.9173
rradius 41.1058
rwrist -0.379072
rhand 1.88786 -31.0199
rfingers 7.12502
rthumb 27.3973 -59.0481
lclavicle -3.76448e-015 -3.18055e-015
lhumerus 44.8409 -14.1253 23.5888
lradius 39.6064
lwrist 8.52734
lhand -8.95394 -19.9019
lfingers 7.12502
lthumb 16.9908 9.37504
rfemur 19.7199 7.7352 2.2288
rtibia 17.7896
rfoot 8.67877 -1.55644
rtoes 20.2541
lfemur 10.4401 1.82952 -14.5307
ltibia 11.221
lfoot -16.9034 10.7356
ltoes -9.65847
1024
root 18.7621 17.3814 -1.33987 714.926 76.3757 717.234
lowerback 1.09792 2.10058 -2.54873
upperback 2.7171 2.83219 0.242448
thorax 2.03844 1.37338 1.69166
lowerneck -31.7609 3.55285 3.6906
upperneck 21.4728 3.38404 -0.550795
head 12.3788 1.73813 -0.154474
rclavicle -3.08116e-014 8.15017e-015
rhumerus 50.7836 15.9337 -34.8688
rradius 41.1839
rwrist -0.472287
rhand 1.76352 -30.9253
rfingers 7.12502
rthumb 27.2784 -58.9723
lclavicle -3.08116e-014 8.15017e-015
lhumerus 44.9228 -13.9236 23.9934
lradius 39.4371
lwrist 8.29569
lhand -8.92212 -20.0198
lfingers 7.12502
lthumb 17.0214 9.25447
rfemur 19.3444 7.68795 2.3107
rtibia 18.1322
rfoot 8.27712 -1.67993
rtoes 19.964
lfemur 10.5573 1.71948 -14.4856
ltibia 11.153
lfoot -16.9234 10.9811
ltoes -10.6106
1025
root 18.8276 17.3848 -1.36773 714.768 76.3705 716.976
lowerback 1.2143 2.04173 -2.77
upperback 2.70568 2.75052 0.248118
thorax 1.95523 1.32959 1.81573
lowerneck -31.9876 3.46589 3.55717
upperneck 21.747 3.3141 -0.537717
head 12.5235 1.69727 -0.136864
rclavicle 8.99501e-015 -1.05356e-014
rhumerus 50.6827 16.0776 -34.4944
rradius 41.3524
rwrist -0.790864
rhand 1.76768 -31.0661
rfingers 7.12502
rthumb 27.2824 -59.1124
lclavicle 8.99501e-015 -1.05356e-014
lhumerus 45.1301 -13.7401 24.4028
lradius 39.1717
lwrist 8.05989
lhand -9.01237 -20.1458
lfingers 7.12502
lthumb 16.9345 9.13594
rfemur 19.096 7.40579 2.1225
rtibia 18.2148
rfoot 7.47848 -1.73724
rtoes 19.195
lfemur 10.7319 1.62069 -14.6155
ltibia 11.011
lfoot -17.0391 11.0503
ltoes -10.717
1026
root 18.8991 17.3871 -1.39801 714.373 76.3736 716.543
lowerback 1.27049 1.99546 -2.81477
upperback 2.81496 2.69218 0.184899
thorax 2.04042 1.2988 1.77639
lowerneck -32.3984 3.45549 3.67545
upperneck 21.9345 3.244 -0.601627
head 12.6734 1.66573 -0.188169
rclavicle -5.46658e-016 3.37934e-015
rhumerus 50.8175 16.0364 -34.2824
rradius 41.4196
rwrist -1.05589
rhand 1.84378 -31.5221
rfingers 7.12502
rthumb 27.3552 -59.557
lclavicle -5.46658e-016 3.37934e-015
lhumerus 45.4436 -13.5692 24.4308
lradius 39.0285
lwrist 8.09191
lhand -9.14008 -20.1686
lfingers 7.12502
lthumb 16.8116 9.12365
rfemur 18.9497 7.12618 2.00043
rtibia 18.2229
rfoot 6.52076 -1.82367
rtoes 19.4704
lfemur 11.033 1.59952 -14.6842
ltibia 10.8437
lfoot -17.2474 10.9615
ltoes -10.0381
1027
root 18.97 17.3887 -1.42571 713.898 76.2032 716.028
lowerback 1.27724 2.01057 -2.82004
upperback 2.89221 2.71605 0.124753
thorax 2.11774 1.31 1.71933
lowerneck -32.1033 3.35263 3.66688
upperneck 21.7478 3.11066 -0.578364
head 12.5429 1.6109 -0.208726
rclavicle 1.01877e-014 -1.98785e-015
rhumerus 50.9476 16.0636 -34.08
rradius 41.4498
rwrist -1.39478
rhand 1.87753 -31.8711
rfingers 7.12502
rthumb 27.3875 -59.9009
lclavicle 1.01877e-014 -1.98785e-015
lhumerus 45.5503 -13.6946 24.0805
lradius 39.2377
lwrist 8.36303
lhand -9.28624 -19.4795
lfingers 7.12502
lthumb 16.6709 9.82459
rfemur 18.7252 6.89677 1.89109
rtibia 18.1687
rfoot 5.8561 -1.8531
rtoes 20.3098
lfemur 11.418 1.57938 -14.7133
ltibia 10.5698
lfoot -17.4032 10.9724
ltoes -9.49011
1028
root 19.0314 17.3895 -1.44862 713.763 75.8848 715.76
lowerback 1.34952 2.08121 -2.94318
upperback 2.93457 2.81093 0.0673445
thorax 2.11356 1.35566 1.72729
lowerneck -31.9141 3.32209 3.45002
upperneck 21.5076 3.11037 -0.352174
head 12.4052 1.6252 -0.0903992
rclavicle -3.8763e-015 7.95139e-016
rhumerus 51.0198 16.0029 -33.9281
rradius 41.437
rwrist -1.57337
rhand 1.83068 -31.79
rfingers 7.12502
rthumb 27.3427 -59.8269
lclavicle -3.8763e-015 7.95139e-016
lhumerus 45.5817 -13.9307 23.408
lradius 39.5988
lwrist 8.84689
lhand -9.59231 -18.7261
lfingers 7.12502
lthumb 16.3762 10.6026
rfemur 18.2622 6.6644 1.68974
rtibia 17.987
rfoot 5.3151 -1.48497
rtoes 18.3679
lfemur 11.7287 1.43686 -14.8185
ltibia 10.1812
lfoot -17.4418 11.2142
ltoes -8.65357
1029
root 19.0858 17.3922 -1.46956 713.526 75.7305 715.353
lowerback 1.49045 2.09028 -3.07932
upperback 3.00686 2.8224 0.0154766
thorax 2.10504 1.35941 1.74602
lowerneck -32.3404 3.35002 3.76838
upperneck 21.5847 3.08849 -0.72911
head 12.5234 1.58537 -0.286386
rclavicle 2.63141e-014 -4.77083e-015
rhumerus 51.1463 16.0928 -33.0222
rradius 41.5607
rwrist -2.38267
rhand 1.38931 -31.6454
rfingers 7.12502
rthumb 26.9204 -59.7481
lclavicle 2.63141e-014 -4.77083e-015
lhumerus 45.7891 -13.8067 23.1498
lradius 39.5958
lwrist 8.79443
lhand -9.68913 -18.9136
lfingers 7.12502
lthumb 16.283 10.4227
rfemur 17.829 6.47815 1.65758
rtibia 17.7175
rfoot 4.5802 -1.26702
rtoes 16.083
lfemur 11.8677 1.19186 -14.8576
ltibia 9.94858
lfoot -17.5002 11.2996
ltoes -8.3287
1030
root 19.1459 17.3951 -1.48775 713.011 75.6619 714.71
lowerback 1.66124 2.05176 -3.19817
upperback 2.93604 2.76202 0.0305723
thorax 1.93341 1.32993 1.81919
lowerneck -31.7253 3.27473 3.94155
upperneck 21.1406 3.04661 -1.13522
head 12.2489 1.52357 -0.487858
rclavicle 2.6339e-014 3.18055e-015
rhumerus 51.2457 17.0627 -30.2555
rradius 42.1562
rwrist -4.95727
rhand 0.561792 -31.8433
rfingers 7.12502
rthumb 26.1284 -60.0656
lclavicle 2.6339e-014 3.18055e-015
lhumerus 45.9259 -13.8115 23.344
lradius 39.4071
lwrist 8.39817
lhand -9.66637 -19.2504
lfingers 7.12502
lthumb 16.3049 10.0841
rfemur 17.4982 6.30097 1.75451
rtibia 17.502
rfoot 4.14227 -1.62452
rtoes 16.8631
lfemur 11.968 1.08769 -14.7503
ltibia 9.9593
lfoot -17.6769 11.0182
ltoes -8.55953
1031
root 19.2122 17.398 -1.50512 712.507 75.5358 714.127
lowerback 1.78439 2.03093 -3.27105
upperback 2.84 2.72588 0.032123
thorax 1.76409 1.31379 1.85433
lowerneck -31.1322 3.23311 3.87404
upperneck 20.9848 3.05603 -1.1606
head 12.0834 1.52148 -0.491241
rclavicle 2.43511e-015 -6.75868e-015
rhumerus 50.9123 16.5561 -32.744
rradius 41.5891
rwrist -2.65664
rhand 1.59852 -31.562
rfingers 7.12502
rthumb 27.1206 -59.6336
lclavicle 2.43511e-015 -6.75868e-015
lhumerus 45.91 -14.1433 23.2128
lradius 39.4165
lwrist 8.53509
lhand -9.84584 -19.3186
lfingers 7.12502
lthumb 16.1321 10.03
rfemur 17.1949 6.01702 1.73105
rtibia 17.232
rfoot 3.36254 -1.79623
rtoes 17.3339
lfemur 12.1727 1.07222 -14.6418
ltibia 9.96108
lfoot -17.7142 10.7902
ltoes -9.3788
1032
root 19.2767 17.4014 -1.5241 712.795 75.4315 714.352
lowerback 1.78625 1.99886 -3.54216
upperback 2.89638 2.68539 -0.0317252
thorax 1.81515 1.28801 1.94168
lowerneck -31.2749 3.29975 3.64873
upperneck 21.307 3.15099 -0.815357
head 12.2269 1.59506 -0.301555
rclavicle -3.5334e-014 -1.47101e-014
rhumerus 51.5354 17.316 -30.2726
rradius 41.6845
rwrist -4.87615
rhand 1.21925 -31.7631
rfingers 7.12502
rthumb 26.7577 -59.8908
lclavicle -3.5334e-014 -1.47101e-014
lhumerus 45.9118 -14.286 22.9003
lradius 39.4847
lwrist 8.7102
lhand -9.93514 -19.3273
lfingers 7.12502
lthumb 16.0461 10.0282
rfemur 16.9256 5.68047 1.41258
rtibia 16.7904
rfoot 2.78469 -1.91135
rtoes 17.7682
lfemur 12.4486 0.881861 -14.8598
ltibia 9.71902
lfoot -17.6342 10.7727
ltoes -10.0821
1033
root 19.3349 17.4027 -1.53896 713.166 75.2287 714.64
lowerback 1.82949 2.0007 -3.90357
upperback 2.94989 2.68765 -0.0683076
thorax 1.83282 1.28202 2.10529
lowerneck -31.3645 3.31097 3.50305
upperneck 21.5832 3.17391 -0.608419
head 12.3457 1.62357 -0.191361
rclavicle -4.64162e-014 3.57812e-015
rhumerus 51.4969 17.3023 -30.3182
rradius 41.8395
rwrist -4.68362
rhand 1.42117 -31.6347
rfingers 7.12502
rthumb 26.9509 -59.7327
lclavicle -4.64162e-014 3.57812e-015
lhumerus 45.8894 -14.4634 22.3729
lradius 39.5905
lwrist 8.80555
lhand -9.99845 -19.2768
lfingers 7.12502
lthumb 15.9851 10.0836
rfemur 16.5132 5.54104 1.20564
rtibia 16.37
rfoot 2.1912 -2.03203
rtoes 16.8439
lfemur 12.7085 0.723344 -15.0519
ltibia 9.42835
lfoot -17.6404 10.7177
ltoes -9.74657
1034
root 19.3883 17.4028 -1.54739 712.556 74.8736 713.967
lowerback 2.09482 2.05925 -4.03672
upperback 2.94993 2.75294 -0.0516495
thorax 1.67354 1.31557 2.18539
lowerneck -31.7017 3.30361 3.73919
upperneck 22.0067 3.08997 -0.766917
head 12.5803 1.58412 -0.300387
rclavicle -1.963e-014 -5.96354e-015
rhumerus 51.5688 17.3833 -30.2394
rradius 41.7902
rwrist -4.62709
rhand 1.47898 -31.4721
rfingers 7.12502
rthumb 27.0062 -59.5615
lclavicle -1.963e-014 -5.96354e-015
lhumerus 45.8483 -14.6736 21.9196
lradius 39.7111
lwrist 8.69979
lhand -10.0024 -19.2204
lfingers 7.12502
lthumb 15.9813 10.1404
rfemur 15.9244 5.63226 1.45034
rtibia 16.1728
rfoot 1.45798 -2.23792
rtoes 15.3272
lfemur 12.9762 0.759836 -14.7891
ltibia 9.26227
lfoot -17.6384 10.6496
ltoes -9.65094
1035
root 19.4453 17.4028 -1.55988 712.592 74.6865 713.925
lowerback 2.24541 2.0674 -4.25663
upperback 3.00376 2.75886 -0.117464
thorax 1.63834 1.3159 2.23565
lowerneck -31.7147 3.3192 3.80925
upperneck 22.0241 3.10103 -0.842752
head 12.5926 1.58397 -0.338704
rclavicle 3.07619e-014 -3.97569e-015
rhumerus 51.6535 17.4073 -30.0726
rradius 41.8334
rwrist -4.82259
rhand 1.41652 -31.5867
rfingers 7.12502
rthumb 26.9464 -59.6854
lclavicle 3.07619e-014 -3.97569e-015
lhumerus 45.9523 -14.544 22.1034
lradius 39.6331
lwrist 7.97259
lhand -9.68211 -19.2298
lfingers 7.12502
lthumb 16.2897 10.106
rfemur 15.3785 5.34313 1.30456
rtibia 15.9551
rfoot 0.858755 -2.20772
rtoes 14.1091
lfemur 13.1765 0.716583 -14.8199
ltibia 9.12143
lfoot -17.5662 10.7264
ltoes -10.4733
